<mxfile host="app.diagrams.net" modified="2022-03-21T08:46:55.215Z" agent="5.0 (Macintosh; Intel Mac OS X 10_13_6) AppleWebKit/537.36 (KHTML, like Gecko) Chrome/99.0.4844.74 Safari/537.36" etag="Vrq3ZyYXtDMYj_krpNEZ" version="17.1.3" type="github">
  <diagram name="Page-1" id="c7488fd3-1785-93aa-aadb-54a6760d102a">
    <mxGraphModel dx="814" dy="617" grid="1" gridSize="10" guides="1" tooltips="1" connect="1" arrows="1" fold="1" page="1" pageScale="1" pageWidth="1100" pageHeight="850" background="none" math="0" shadow="0">
      <root>
        <mxCell id="0" />
        <mxCell id="1" parent="0" />
        <mxCell id="2b4e8129b02d487f-1" value="Pool" style="swimlane;html=1;childLayout=stackLayout;horizontal=1;startSize=20;horizontalStack=0;rounded=0;shadow=0;labelBackgroundColor=none;strokeWidth=1;fontFamily=Verdana;fontSize=8;align=center;" parent="1" vertex="1">
          <mxGeometry x="180" y="70" width="680" height="470" as="geometry">
            <mxRectangle x="180" y="70" width="60" height="20" as="alternateBounds" />
          </mxGeometry>
        </mxCell>
        <mxCell id="2b4e8129b02d487f-2" value="Lane 1" style="swimlane;html=1;startSize=20;horizontal=0;" parent="2b4e8129b02d487f-1" vertex="1">
          <mxGeometry y="20" width="680" height="150" as="geometry" />
        </mxCell>
        <mxCell id="2b4e8129b02d487f-18" style="edgeStyle=orthogonalEdgeStyle;rounded=0;html=1;labelBackgroundColor=none;startArrow=none;startFill=0;startSize=5;endArrow=classicThin;endFill=1;endSize=5;jettySize=auto;orthogonalLoop=1;strokeWidth=1;fontFamily=Verdana;fontSize=8" parent="2b4e8129b02d487f-2" source="2b4e8129b02d487f-5" target="2b4e8129b02d487f-6" edge="1">
          <mxGeometry relative="1" as="geometry" />
        </mxCell>
        <mxCell id="2b4e8129b02d487f-5" value="登录" style="ellipse;whiteSpace=wrap;html=1;rounded=0;shadow=0;labelBackgroundColor=none;strokeWidth=1;fontFamily=Verdana;fontSize=8;align=center;" parent="2b4e8129b02d487f-2" vertex="1">
          <mxGeometry x="60" y="60" width="30" height="30" as="geometry" />
        </mxCell>
        <mxCell id="2b4e8129b02d487f-6" value="添加&lt;br&gt;采购计划" style="rounded=1;whiteSpace=wrap;html=1;shadow=0;labelBackgroundColor=none;strokeWidth=1;fontFamily=Verdana;fontSize=8;align=center;" parent="2b4e8129b02d487f-2" vertex="1">
          <mxGeometry x="120" y="56.49999999999997" width="70" height="37" as="geometry" />
        </mxCell>
        <mxCell id="2b4e8129b02d487f-20" style="edgeStyle=orthogonalEdgeStyle;rounded=0;html=1;labelBackgroundColor=none;startArrow=none;startFill=0;startSize=5;endArrow=classicThin;endFill=1;endSize=5;jettySize=auto;orthogonalLoop=1;strokeWidth=1;fontFamily=Verdana;fontSize=8" parent="2b4e8129b02d487f-2" source="2b4e8129b02d487f-7" target="2b4e8129b02d487f-8" edge="1">
          <mxGeometry relative="1" as="geometry" />
        </mxCell>
        <mxCell id="2b4e8129b02d487f-7" value="编辑&lt;br&gt;采购计划" style="rounded=1;whiteSpace=wrap;html=1;shadow=0;labelBackgroundColor=none;strokeWidth=1;fontFamily=Verdana;fontSize=8;align=center;" parent="2b4e8129b02d487f-2" vertex="1">
          <mxGeometry x="230" y="56.49999999999997" width="70" height="37" as="geometry" />
        </mxCell>
        <mxCell id="2b4e8129b02d487f-8" value="" style="ellipse;whiteSpace=wrap;html=1;rounded=0;shadow=0;labelBackgroundColor=none;strokeWidth=2;fontFamily=Verdana;fontSize=8;align=center;" parent="2b4e8129b02d487f-2" vertex="1">
          <mxGeometry x="330" y="60" width="30" height="30" as="geometry" />
        </mxCell>
        <mxCell id="2b4e8129b02d487f-3" value="Lane 2" style="swimlane;html=1;startSize=20;horizontal=0;" parent="2b4e8129b02d487f-1" vertex="1">
          <mxGeometry y="170" width="680" height="150" as="geometry" />
        </mxCell>
        <mxCell id="2b4e8129b02d487f-26" style="edgeStyle=orthogonalEdgeStyle;rounded=0;html=1;labelBackgroundColor=none;startArrow=none;startFill=0;startSize=5;endArrow=classicThin;endFill=1;endSize=5;jettySize=auto;orthogonalLoop=1;strokeWidth=1;fontFamily=Verdana;fontSize=8" parent="2b4e8129b02d487f-3" source="2b4e8129b02d487f-12" target="2b4e8129b02d487f-13" edge="1">
          <mxGeometry relative="1" as="geometry" />
        </mxCell>
        <mxCell id="2b4e8129b02d487f-12" value="审核&lt;br&gt;采购计划" style="rounded=1;whiteSpace=wrap;html=1;shadow=0;labelBackgroundColor=none;strokeWidth=1;fontFamily=Verdana;fontSize=8;align=center;" parent="2b4e8129b02d487f-3" vertex="1">
          <mxGeometry x="120" y="49.99999999999996" width="70" height="37" as="geometry" />
        </mxCell>
        <mxCell id="2b4e8129b02d487f-13" value="" style="strokeWidth=1;html=1;shape=mxgraph.flowchart.decision;whiteSpace=wrap;rounded=1;shadow=0;labelBackgroundColor=none;fontFamily=Verdana;fontSize=8;align=center;" parent="2b4e8129b02d487f-3" vertex="1">
          <mxGeometry x="250" y="53.499999999999915" width="30" height="30" as="geometry" />
        </mxCell>
        <mxCell id="2b4e8129b02d487f-4" value="Lane 3" style="swimlane;html=1;startSize=20;horizontal=0;" parent="2b4e8129b02d487f-1" vertex="1">
          <mxGeometry y="320" width="680" height="150" as="geometry" />
        </mxCell>
        <mxCell id="2b4e8129b02d487f-24" style="edgeStyle=orthogonalEdgeStyle;rounded=0;html=1;labelBackgroundColor=none;startArrow=none;startFill=0;startSize=5;endArrow=classicThin;endFill=1;endSize=5;jettySize=auto;orthogonalLoop=1;strokeWidth=1;fontFamily=Verdana;fontSize=8" parent="2b4e8129b02d487f-1" source="2b4e8129b02d487f-6" target="2b4e8129b02d487f-12" edge="1">
          <mxGeometry relative="1" as="geometry" />
        </mxCell>
        <mxCell id="2b4e8129b02d487f-25" value="No" style="edgeStyle=orthogonalEdgeStyle;rounded=0;html=1;labelBackgroundColor=none;startArrow=none;startFill=0;startSize=5;endArrow=classicThin;endFill=1;endSize=5;jettySize=auto;orthogonalLoop=1;strokeWidth=1;fontFamily=Verdana;fontSize=8" parent="2b4e8129b02d487f-1" source="2b4e8129b02d487f-13" target="2b4e8129b02d487f-7" edge="1">
          <mxGeometry x="-0.9364" y="-15" relative="1" as="geometry">
            <mxPoint as="offset" />
          </mxGeometry>
        </mxCell>
        <mxCell id="2b4e8129b02d487f-27" value="Yes" style="edgeStyle=orthogonalEdgeStyle;rounded=0;html=1;labelBackgroundColor=none;startArrow=none;startFill=0;startSize=5;endArrow=classicThin;endFill=1;endSize=5;jettySize=auto;orthogonalLoop=1;strokeWidth=1;fontFamily=Verdana;fontSize=8" parent="2b4e8129b02d487f-1" source="2b4e8129b02d487f-13" edge="1">
          <mxGeometry x="-0.8947" y="15" relative="1" as="geometry">
            <mxPoint as="offset" />
            <mxPoint x="265" y="377" as="targetPoint" />
          </mxGeometry>
        </mxCell>
      </root>
    </mxGraphModel>
  </diagram>
</mxfile>
